<svg width="30" height="22" viewBox="0 0 30 22" fill="none" xmlns="http://www.w3.org/2000/svg">
<path d="M28.8655 10.5558C29.3099 10.8225 29.3099 11.178 28.8655 11.4447L11.7099 21.4891C11.2655 21.7558 10.6433 21.7558 10.1988 21.4891L1.13216 16.1558C0.687717 15.8891 0.687717 15.5336 1.13216 15.2669L18.3766 5.22246C18.8211 4.95579 19.4433 4.95579 19.8877 5.22246L28.8655 10.5558Z" fill="#FFE9CC"/>
<path d="M11.444 15.1779L11.0885 21.6668C10.7329 21.6668 10.4662 21.6668 10.1996 21.489L1.1329 16.1557C0.866233 16.0668 0.777344 15.889 0.777344 15.7113C0.777344 15.6224 0.866233 15.5335 1.04401 15.4446L6.19957 12.4224L11.444 15.1779Z" fill="#FFDA61"/>
<path d="M29.2212 10.9114L27.8879 5.66699L11.4434 15.1781L11.0879 21.5781L29.2212 10.9114Z" fill="url(#paint0_linear_81_385)"/>
<path d="M11.444 15.178L11.0885 21.578L0.777344 15.7113V15.6225L2.11068 10.0225L6.28846 12.3336L11.444 15.178Z" fill="#F9BF41"/>
<path d="M27.6224 5.31126C27.978 5.48904 27.978 5.8446 27.6224 6.11126L11.978 15.1779C11.6224 15.3557 11.0002 15.3557 10.6447 15.1779L2.37799 10.3779C2.02244 10.2002 2.02244 9.8446 2.37799 9.57793L18.0224 0.511263C18.378 0.333485 19.0002 0.333485 19.3558 0.511263L27.6224 5.31126Z" fill="url(#paint1_linear_81_385)"/>
<g opacity="0.5">
<path d="M5.75511 11.178L10.9107 13.6669C11.1773 13.7558 11.444 13.7558 11.7107 13.6669L22.3773 8.15583C22.5551 8.06694 22.4662 7.88916 22.2884 7.88916C16.1551 9.40027 10.4662 10.5558 5.844 10.8225C5.66622 10.8225 5.57733 11.0892 5.75511 11.178Z" fill="#FFDA61"/>
</g>
<g opacity="0.4">
<path d="M23.6219 3.5335C23.7108 3.62239 20.7775 3.35572 20.5997 3.35572C16.6886 3.08905 12.4219 5.57794 8.24414 6.64461L18.4664 1.40016C18.6441 1.31127 18.8219 1.31127 18.9997 1.40016C19.6219 1.66683 22.8219 3.17794 23.6219 3.5335Z" fill="white"/>
</g>
<g opacity="0.5">
<path d="M25.6656 7.2666C21.3989 10.111 16.6878 12.8666 12.5989 15.0888C12.1545 15.3555 11.7989 15.7999 11.71 16.3333L11.1767 19.8888L11.0878 16.4222C11.0878 15.7999 10.7322 15.2666 10.1989 14.9999C9.22114 14.4666 8.33225 13.9333 7.35447 13.3999C6.02114 12.6888 4.77669 11.8888 3.44336 11.0888C4.86558 11.711 6.19892 12.2444 7.53225 12.9555C8.51003 13.3999 9.57669 13.9333 10.5545 14.3777C11.0878 14.6444 11.71 14.6444 12.2434 14.2888C17.6656 11.1777 22.7323 8.59993 25.6656 7.2666Z" fill="white"/>
</g>
<g opacity="0.4">
<path d="M28.3324 9.31142L27.7102 7.0003C27.7102 6.82253 27.5324 6.82253 27.4435 6.91141L25.488 8.24475C25.3991 8.33364 25.488 8.42253 25.5769 8.42253C26.7324 8.24475 27.6213 8.6003 28.2435 9.48919C28.3324 9.4003 28.4213 9.4003 28.3324 9.31142Z" fill="white"/>
</g>
<g opacity="0.4">
<path d="M4.77708 12.4224L2.73264 11.1779C2.64375 11.089 2.46597 11.1779 2.46597 11.2668L1.84375 13.6668C1.84375 13.7557 1.93264 13.8446 2.02153 13.7557C2.73264 12.8668 3.62153 12.4224 4.68819 12.6002C4.77708 12.6002 4.77708 12.5113 4.77708 12.4224Z" fill="white"/>
</g>
<path d="M12.4602 15.8673C12.2751 15.8673 12.1825 16.051 12.2751 16.2347C13.6632 17.8878 13.6632 18.0714 12.09 16.4184C11.9974 16.3265 11.7198 16.3265 11.7198 16.5102C11.5347 18.3469 11.3496 20 11.2571 20C11.1645 20 11.1645 18.3469 11.1645 16.5102C11.1645 16.3265 10.9794 16.2347 10.7943 16.3265C9.03599 17.7041 9.03599 17.7041 10.6093 16.1429C10.7018 16.051 10.7018 15.7755 10.5167 15.7755C8.66581 15.5918 7 15.4082 7 15.3163C7 15.2245 8.66581 15.2245 10.5167 15.2245C10.7018 15.2245 10.7943 15.0408 10.7018 14.8571C10.1465 14.1224 9.59126 13.5714 9.6838 13.4796C9.77635 13.4796 10.2391 13.9388 10.8869 14.5816C10.9794 14.6735 11.2571 14.6735 11.2571 14.4898C11.4422 12.6531 11.6272 11 11.7198 11C11.8123 11 11.8123 12.6531 11.8123 14.4898C11.8123 14.6735 11.9974 14.7653 12.1825 14.6735C13.9409 13.2041 13.9409 13.3878 12.3676 14.8571C12.2751 14.949 12.2751 15.2245 12.4602 15.2245C17.1799 15.6837 17.1799 15.8673 12.4602 15.8673Z" fill="white"/>
<path d="M8.99974 12.6224C8.93804 12.6224 8.90719 12.6837 8.93804 12.7449C9.40077 13.2959 9.40077 13.3571 8.87635 12.8061C8.8455 12.7755 8.75295 12.7755 8.75295 12.8367C8.69126 13.449 8.62956 14 8.59871 14C8.56786 14 8.56786 13.449 8.56786 12.8367C8.56786 12.7755 8.50617 12.7449 8.44447 12.7755C7.85835 13.2347 7.85835 13.2347 8.38277 12.7143C8.41362 12.6837 8.41362 12.5918 8.35192 12.5918C7.73496 12.5306 7.17969 12.4694 7.17969 12.4388C7.17969 12.4082 7.73496 12.4082 8.35192 12.4082C8.41362 12.4082 8.44447 12.3469 8.41362 12.2857C8.22853 12.0408 8.04344 11.8571 8.07429 11.8265C8.10514 11.8265 8.25938 11.9796 8.47532 12.1939C8.50617 12.2245 8.59871 12.2245 8.59871 12.1633C8.66041 11.551 8.7221 11 8.75295 11C8.7838 11 8.7838 11.551 8.7838 12.1633C8.7838 12.2245 8.8455 12.2551 8.90719 12.2245C9.49331 11.7347 9.49331 11.7959 8.96889 12.2857C8.93804 12.3163 8.93804 12.4082 8.99974 12.4082C10.573 12.5612 10.573 12.6224 8.99974 12.6224Z" fill="white"/>
<g opacity="0.4">
<path d="M18.021 17.1334L12.3322 20.4223C12.0655 20.6 11.7988 20.3334 11.7988 20.0667L12.0655 17.4889C12.0655 17.4 12.2433 17.3111 12.2433 17.4C12.9544 18.2889 15.7988 17.6667 17.9322 16.8667C18.021 16.9556 18.1099 17.0445 18.021 17.1334Z" fill="white"/>
</g>
<g opacity="0.4">
<path d="M7.17744 19.0001L10.1997 20.689C10.3774 20.7779 10.4663 20.689 10.4663 20.4223V17.5779C10.4663 17.489 10.2886 17.4001 10.2886 17.489C9.75522 18.4667 8.86633 19.0001 7.26633 18.7334C7.17744 18.8223 7.08856 18.9112 7.17744 19.0001Z" fill="white"/>
</g>
<defs>
<linearGradient id="paint0_linear_81_385" x1="28" y1="7" x2="12" y2="21" gradientUnits="userSpaceOnUse">
<stop stop-color="#FFA62E"/>
<stop offset="1" stop-color="#F3D63F"/>
</linearGradient>
<linearGradient id="paint1_linear_81_385" x1="18.5" y1="1.59474e-07" x2="11" y2="15" gradientUnits="userSpaceOnUse">
<stop stop-color="#FFB761"/>
<stop offset="0.5" stop-color="#FAC73D"/>
<stop offset="1" stop-color="#EBAC00"/>
</linearGradient>
</defs>
</svg>
